<svg width="200" height="95" viewBox="0 0 200 95" fill="none" xmlns="http://www.w3.org/2000/svg">
<path d="M121.221 90.28L122.742 90.6651C122.423 91.9158 121.85 92.8689 121.021 93.5261C120.191 94.1832 119.18 94.511 117.983 94.511C116.786 94.511 115.737 94.2596 114.962 93.7536C114.186 93.2492 113.595 92.5172 113.189 91.5609C112.784 90.603 112.582 89.5751 112.582 88.4772C112.582 87.279 112.811 86.2336 113.269 85.3425C113.727 84.4514 114.377 83.7736 115.221 83.3105C116.065 82.8475 116.993 82.6152 118.007 82.6152C119.156 82.6152 120.124 82.908 120.908 83.4935C121.692 84.0791 122.238 84.9033 122.547 85.9663L121.049 86.3195C120.782 85.4825 120.396 84.8731 119.889 84.4912C119.382 84.1093 118.745 83.9184 117.977 83.9184C117.093 83.9184 116.356 84.13 115.763 84.5533C115.17 84.9765 114.753 85.5462 114.512 86.2606C114.272 86.9751 114.151 87.7118 114.151 88.4692C114.151 89.4478 114.294 90.3007 114.579 91.0311C114.863 91.7614 115.307 92.3056 115.907 92.6668C116.508 93.028 117.158 93.2078 117.859 93.2078C118.711 93.2078 119.433 92.9612 120.023 92.4695C120.612 91.9778 121.013 91.2475 121.221 90.28Z" fill="white"/>
<path d="M123.124 90.1464C123.124 88.603 123.553 87.4605 124.409 86.7174C125.125 86.1 125.997 85.7913 127.027 85.7913C128.172 85.7913 129.106 86.1668 129.834 86.9179C130.561 87.6689 130.925 88.7064 130.925 90.0287C130.925 91.1012 130.764 91.9445 130.443 92.5587C130.122 93.1729 129.655 93.6503 129.04 93.9908C128.426 94.3313 127.755 94.5016 127.029 94.5016C125.864 94.5016 124.921 94.1276 124.203 93.3798C123.484 92.6319 123.125 91.5547 123.125 90.1464H123.124ZM124.573 90.1464C124.573 91.2141 124.805 92.0129 125.271 92.5444C125.737 93.0759 126.322 93.3416 127.027 93.3416C127.733 93.3416 128.31 93.0743 128.776 92.5412C129.241 92.0082 129.474 91.1935 129.474 90.1003C129.474 89.0692 129.24 88.2895 128.773 87.758C128.305 87.2266 127.724 86.9624 127.029 86.9624C126.334 86.9624 125.738 87.2266 125.273 87.7549C124.807 88.2831 124.575 89.0803 124.575 90.148L124.573 90.1464Z" fill="white"/>
<path d="M131.791 94.3137V85.9805H133.061V87.166C133.673 86.2511 134.555 85.7928 135.711 85.7928C136.213 85.7928 136.674 85.8835 137.093 86.0633C137.515 86.2431 137.829 86.4802 138.038 86.773C138.246 87.0657 138.394 87.4142 138.476 87.8168C138.529 88.0778 138.554 88.536 138.554 89.19V94.3137H137.143V89.2441C137.143 88.6681 137.089 88.2385 136.977 87.9536C136.868 87.6688 136.672 87.4413 136.394 87.271C136.114 87.1008 135.787 87.0164 135.41 87.0164C134.809 87.0164 134.291 87.2074 133.854 87.5893C133.417 87.9711 133.199 88.6951 133.199 89.7628V94.3137H131.788H131.791Z" fill="white"/>
<path d="M143.013 93.0507L143.216 94.2982C142.819 94.3826 142.464 94.4239 142.15 94.4239C141.638 94.4239 141.24 94.3428 140.957 94.1805C140.675 94.0182 140.476 93.805 140.361 93.5408C140.247 93.2767 140.19 92.7213 140.19 91.8732V87.0789H139.155V85.981H140.19V83.9172L141.593 83.0691V85.981H143.013V87.0789H141.593V91.9528C141.593 92.3554 141.619 92.6147 141.668 92.7293C141.717 92.8439 141.798 92.9362 141.911 93.0046C142.024 93.073 142.185 93.1064 142.393 93.1064C142.55 93.1064 142.757 93.0873 143.013 93.0523V93.0507Z" fill="white"/>
<path d="M149.039 93.2859C148.516 93.7298 148.013 94.0449 147.53 94.2279C147.047 94.4109 146.529 94.5032 145.974 94.5032C145.06 94.5032 144.356 94.2788 143.865 93.8317C143.374 93.3845 143.127 92.8133 143.127 92.1164C143.127 91.709 143.219 91.3351 143.405 90.9977C143.591 90.6604 143.835 90.3899 144.135 90.1862C144.435 89.9826 144.774 89.8282 145.151 89.7232C145.427 89.65 145.845 89.58 146.405 89.5116C147.544 89.3763 148.382 89.214 148.921 89.0247C148.926 88.8305 148.929 88.708 148.929 88.6555C148.929 88.0795 148.795 87.6737 148.53 87.4398C148.169 87.1216 147.633 86.9609 146.923 86.9609C146.259 86.9609 145.769 87.077 145.453 87.3093C145.136 87.5416 144.903 87.9538 144.752 88.5457L143.372 88.3579C143.498 87.7676 143.704 87.2902 143.992 86.9259C144.28 86.5631 144.694 86.283 145.238 86.0857C145.782 85.89 146.411 85.7913 147.126 85.7913C147.842 85.7913 148.414 85.8757 148.859 86.0427C149.302 86.2098 149.63 86.4214 149.84 86.6744C150.048 86.929 150.196 87.2489 150.278 87.6355C150.326 87.8758 150.348 88.3102 150.348 88.9387V90.8227C150.348 92.1355 150.378 92.9661 150.439 93.3145C150.499 93.663 150.618 93.9956 150.795 94.3154H149.321C149.175 94.0226 149.081 93.6805 149.039 93.2875V93.2859ZM148.921 90.1321C148.409 90.3406 147.641 90.5188 146.616 90.6652C146.036 90.7495 145.626 90.8434 145.386 90.9484C145.146 91.0534 144.96 91.2062 144.83 91.4067C144.699 91.6088 144.634 91.8315 144.634 92.0782C144.634 92.4553 144.777 92.7688 145.062 93.0202C145.346 93.2716 145.763 93.3973 146.313 93.3973C146.863 93.3973 147.339 93.2779 147.762 93.0409C148.185 92.8022 148.497 92.4776 148.695 92.0638C148.846 91.7456 148.922 91.2746 148.922 90.6509V90.1337L148.921 90.1321Z" fill="white"/>
<path d="M151.755 84.434V82.8094H153.166V84.434H151.755ZM151.755 94.3138V85.9807H153.166V94.3138H151.755Z" fill="white"/>
<path d="M154.527 94.3137V85.9805H155.797V87.166C156.409 86.2511 157.291 85.7928 158.446 85.7928C158.949 85.7928 159.41 85.8835 159.829 86.0633C160.25 86.2431 160.565 86.4802 160.773 86.773C160.982 87.0657 161.129 87.4142 161.212 87.8168C161.265 88.0778 161.29 88.536 161.29 89.19V94.3137H159.879V89.2441C159.879 88.6681 159.824 88.2385 159.713 87.9536C159.604 87.6688 159.408 87.4413 159.13 87.271C158.85 87.1008 158.523 87.0164 158.146 87.0164C157.545 87.0164 157.027 87.2074 156.59 87.5893C156.153 87.9711 155.935 88.6951 155.935 89.7628V94.3137H154.524H154.527Z" fill="white"/>
<path d="M168.368 91.631L169.826 91.8109C169.595 92.6637 169.169 93.3257 168.548 93.7967C167.926 94.2677 167.131 94.5032 166.165 94.5032C164.948 94.5032 163.983 94.1276 163.269 93.3766C162.555 92.6255 162.199 91.5738 162.199 90.2181C162.199 88.8623 162.56 87.7278 163.28 86.9529C164.002 86.178 164.936 85.7913 166.087 85.7913C167.238 85.7913 168.109 86.17 168.815 86.929C169.52 87.688 169.873 88.7541 169.873 90.1305C169.873 90.2149 169.87 90.339 169.865 90.5077H163.657C163.709 91.4226 163.968 92.1243 164.433 92.6112C164.898 93.0981 165.478 93.3416 166.173 93.3416C166.69 93.3416 167.131 93.2063 167.497 92.9342C167.863 92.6621 168.152 92.2277 168.366 91.631H168.368ZM163.735 89.3477H168.382C168.32 88.6459 168.142 88.1208 167.85 87.7708C167.4 87.2266 166.818 86.9545 166.101 86.9545C165.453 86.9545 164.909 87.1709 164.468 87.6053C164.026 88.0397 163.781 88.6205 163.735 89.3477Z" fill="white"/>
<path d="M170.795 94.3138V85.9807H172.065V87.2441C172.389 86.6522 172.688 86.2623 172.963 86.0746C173.238 85.8868 173.538 85.7913 173.869 85.7913C174.344 85.7913 174.828 85.9425 175.319 86.2464L174.832 87.5576C174.487 87.3539 174.142 87.252 173.798 87.252C173.489 87.252 173.213 87.3443 172.966 87.5305C172.72 87.7167 172.545 87.9745 172.442 88.3038C172.284 88.8067 172.206 89.3556 172.206 89.9523V94.3154H170.795V94.3138Z" fill="white"/>
<path d="M187.424 90.28L188.945 90.6651C188.626 91.9158 188.054 92.8689 187.224 93.5261C186.394 94.1832 185.383 94.511 184.187 94.511C182.99 94.511 181.941 94.2596 181.165 93.7536C180.389 93.2492 179.798 92.5172 179.393 91.5609C178.987 90.603 178.786 89.5751 178.786 88.4772C178.786 87.279 179.014 86.2336 179.472 85.3425C179.93 84.4514 180.58 83.7736 181.424 83.3105C182.268 82.8475 183.196 82.6152 184.21 82.6152C185.36 82.6152 186.328 82.908 187.111 83.4935C187.895 84.0791 188.442 84.9033 188.75 85.9663L187.253 86.3195C186.986 85.4825 186.599 84.8731 186.092 84.4912C185.585 84.1093 184.948 83.9184 184.18 83.9184C183.296 83.9184 182.559 84.13 181.966 84.5533C181.373 84.9765 180.957 85.5462 180.715 86.2606C180.475 86.9751 180.354 87.7118 180.354 88.4692C180.354 89.4478 180.497 90.3007 180.782 91.0311C181.066 91.7614 181.51 92.3056 182.111 92.6668C182.712 93.028 183.362 93.2078 184.063 93.2078C184.915 93.2078 185.636 92.9612 186.226 92.4695C186.816 91.9778 187.216 91.2475 187.424 90.28Z" fill="white"/>
<path d="M189.325 90.1464C189.325 88.603 189.754 87.4605 190.611 86.7174C191.326 86.1 192.199 85.7913 193.229 85.7913C194.373 85.7913 195.308 86.1668 196.036 86.9179C196.762 87.6689 197.126 88.7064 197.126 90.0287C197.126 91.1012 196.966 91.9445 196.645 92.5587C196.323 93.1729 195.856 93.6503 195.241 93.9908C194.628 94.3313 193.957 94.5016 193.23 94.5016C192.065 94.5016 191.123 94.1276 190.404 93.3798C189.686 92.6319 189.327 91.5547 189.327 90.1464H189.325ZM190.776 90.1464C190.776 91.2141 191.008 92.0129 191.474 92.5444C191.94 93.0759 192.525 93.3416 193.23 93.3416C193.936 93.3416 194.513 93.0743 194.979 92.5412C195.444 92.0082 195.677 91.1935 195.677 90.1003C195.677 89.0692 195.443 88.2895 194.976 87.758C194.508 87.2266 193.927 86.9624 193.232 86.9624C192.537 86.9624 191.941 87.2266 191.476 87.7549C191.01 88.2831 190.778 89.0803 190.778 90.148L190.776 90.1464Z" fill="white"/>
<path d="M198.393 94.3136V92.7049H200V94.3136H198.393Z" fill="white"/>
<path fill-rule="evenodd" clip-rule="evenodd" d="M81.896 57.4758L85.7442 67.6962H73.2461L77.2945 56.8712C78.1496 54.5401 78.8109 52.1899 79.2814 49.8237C79.8504 51.8207 80.723 54.3714 81.896 57.4758Z" fill="white"/>
<path fill-rule="evenodd" clip-rule="evenodd" d="M87.2525 71.6741L90.1533 79.2164H69.1055L71.8378 71.6741H87.2525Z" fill="white"/>
<path fill-rule="evenodd" clip-rule="evenodd" d="M122.593 64.1226C122.593 66.9088 122.27 69.2781 121.625 71.2337C120.98 73.1893 120.078 74.7455 118.921 75.9039C118.099 76.7249 116.998 77.363 115.615 77.8165C114.231 78.27 112.325 78.496 109.893 78.496H102.024V50.3014H109.767C112.668 50.3014 114.773 50.5528 116.079 51.0572C117.89 51.7621 119.428 53.1512 120.693 55.223C121.96 57.2963 122.593 60.2623 122.593 64.1226Z" fill="white"/>
<path fill-rule="evenodd" clip-rule="evenodd" d="M166.744 20.9639V79.2164H156.396C157.213 78.2919 157.843 77.2544 158.284 76.104C159.122 73.9224 159.542 70.9771 159.542 67.268V45.9458H154.664V67.2425C154.664 71.8745 153.901 75.0044 152.375 76.6322C150.849 78.26 148.293 79.0747 144.706 79.0747C142.611 79.0747 140.837 78.6642 139.387 77.8415C137.938 77.0189 136.914 75.8478 136.32 74.3298C135.725 72.8102 135.426 70.4488 135.426 67.2425V45.9458H130.548V67.268C130.548 71.1792 131.017 74.2629 131.956 76.5193C132.374 77.5249 132.918 78.4239 133.584 79.2164H122.215C122.885 78.591 123.523 77.8606 124.127 77.0237C125.149 75.6043 125.986 73.8126 126.641 71.6486C127.295 69.483 127.622 67.0007 127.622 64.197C127.622 60.9079 127.139 57.9833 126.176 55.4247C125.212 52.866 123.758 50.764 121.812 49.1187C120.32 47.8426 118.519 46.9626 116.407 46.4757C114.898 46.1225 112.71 45.9458 109.844 45.9458H97.1454V79.2164H95.6227L82.0216 45.9458H76.7668L64.0033 79.2164H9.70377V30.4316L26.0849 20.9639H88.8245L113.379 35.2084L115.834 30.9487L98.6507 20.9639H166.744Z" fill="white"/>
<path d="M64.8123 4.25966L35.911 20.9641L9.70373 36.1108L2.45573 40.3005L0 36.0408L9.70373 30.4318L26.0848 20.9641L62.3566 0L64.8123 4.25966Z" fill="white"/>
<path d="M98.6505 20.9641H88.8244L59.923 4.25966L62.3788 0L98.6505 20.9641Z" fill="white"/>
</svg>
