<svg width="10" height="18" viewBox="0 0 10 18" fill="none" xmlns="http://www.w3.org/2000/svg">
<path d="M4.26758 17.6953V15.9375C3.38867 15.8268 2.67253 15.6315 2.11914 15.3516C1.57227 15.0651 1.09701 14.6061 0.693359 13.9746C0.296224 13.3431 0.0651042 12.5716 0 11.6602L1.76758 11.3281C1.9043 12.2721 2.14518 12.9655 2.49023 13.4082C2.98503 14.0332 3.57747 14.3815 4.26758 14.4531V8.85742C3.54492 8.7207 2.80599 8.44076 2.05078 8.01758C1.49089 7.70508 1.05794 7.27214 0.751953 6.71875C0.452474 6.16536 0.302734 5.53711 0.302734 4.83398C0.302734 3.58398 0.745443 2.57161 1.63086 1.79688C2.22331 1.27604 3.10221 0.957031 4.26758 0.839844V0H5.30273V0.839844C6.32487 0.9375 7.13542 1.23698 7.73438 1.73828C8.5026 2.3763 8.96484 3.25195 9.12109 4.36523L7.30469 4.63867C7.20052 3.94857 6.98242 3.42122 6.65039 3.05664C6.32487 2.68555 5.87565 2.44141 5.30273 2.32422V7.39258C6.18815 7.61393 6.77409 7.78646 7.06055 7.91016C7.60742 8.15104 8.05339 8.44401 8.39844 8.78906C8.74349 9.13411 9.00716 9.54427 9.18945 10.0195C9.37826 10.4948 9.47266 11.0091 9.47266 11.5625C9.47266 12.7799 9.08529 13.7956 8.31055 14.6094C7.53581 15.4232 6.5332 15.8594 5.30273 15.918V17.6953H4.26758ZM4.26758 2.30469C3.58398 2.40885 3.04362 2.68229 2.64648 3.125C2.25586 3.56771 2.06055 4.0918 2.06055 4.69727C2.06055 5.29622 2.22656 5.79753 2.55859 6.20117C2.89714 6.60482 3.4668 6.92708 4.26758 7.16797V2.30469ZM5.30273 14.4531C5.98633 14.3685 6.54948 14.0723 6.99219 13.5645C7.44141 13.0566 7.66602 12.4284 7.66602 11.6797C7.66602 11.0417 7.50651 10.5306 7.1875 10.1465C6.875 9.75586 6.24674 9.40755 5.30273 9.10156V14.4531Z" fill="#263824"/>
</svg>
