<svg width="16" height="16" viewBox="0 0 16 16" fill="none" xmlns="http://www.w3.org/2000/svg">
<path d="M0 3.68164C0 2.65951 0.257161 1.79036 0.771484 1.07422C1.28581 0.358073 2.03125 0 3.00781 0C3.90625 0 4.64844 0.322266 5.23438 0.966797C5.82682 1.60482 6.12305 2.54557 6.12305 3.78906C6.12305 5 5.82357 5.93424 5.22461 6.5918C4.63216 7.24284 3.89974 7.56836 3.02734 7.56836C2.16146 7.56836 1.4388 7.24609 0.859375 6.60156C0.286458 5.95703 0 4.98372 0 3.68164ZM3.05664 1.21094C2.62044 1.21094 2.25586 1.39974 1.96289 1.77734C1.67643 2.15495 1.5332 2.84831 1.5332 3.85742C1.5332 4.77539 1.67969 5.42318 1.97266 5.80078C2.26562 6.17188 2.62695 6.35742 3.05664 6.35742C3.49935 6.35742 3.86393 6.16862 4.15039 5.79102C4.44336 5.41341 4.58984 4.72331 4.58984 3.7207C4.58984 2.79622 4.44336 2.14844 4.15039 1.77734C3.85742 1.39974 3.49284 1.21094 3.05664 1.21094ZM3.06641 15.0879L10.8984 0H12.3242L4.52148 15.0879H3.06641ZM9.25781 11.2012C9.25781 10.1725 9.51497 9.30339 10.0293 8.59375C10.5436 7.8776 11.2923 7.51953 12.2754 7.51953C13.1738 7.51953 13.916 7.8418 14.502 8.48633C15.0944 9.12435 15.3906 10.0651 15.3906 11.3086C15.3906 12.5195 15.0911 13.4538 14.4922 14.1113C13.8997 14.7624 13.1641 15.0879 12.2852 15.0879C11.4193 15.0879 10.6966 14.7656 10.1172 14.1211C9.54427 13.4701 9.25781 12.4967 9.25781 11.2012ZM12.3242 8.73047C11.8815 8.73047 11.5137 8.91927 11.2207 9.29688C10.9342 9.67448 10.791 10.3678 10.791 11.377C10.791 12.2884 10.9375 12.9329 11.2305 13.3105C11.5234 13.6882 11.8848 13.877 12.3145 13.877C12.7637 13.877 13.1315 13.6882 13.418 13.3105C13.7109 12.9329 13.8574 12.2428 13.8574 11.2402C13.8574 10.3158 13.7109 9.66797 13.418 9.29688C13.125 8.91927 12.7604 8.73047 12.3242 8.73047Z" fill="#263824"/>
</svg>
